<mxfile host="drawio-plugin" modified="2024-04-09T08:23:20.868Z" agent="5.0 (Macintosh; Intel Mac OS X 10_15_7) AppleWebKit/537.36 (KHTML, like Gecko) Chrome/122.0.0.0 Safari/537.36" etag="CjZGlsN-HHwGtnKJrWBH" version="20.5.3" type="embed"><diagram id="23iRSUPoRavnBvh4doch" name="Page-1"><mxGraphModel dx="1523" dy="1180" grid="1" gridSize="10" guides="1" tooltips="1" connect="1" arrows="1" fold="1" page="1" pageScale="1" pageWidth="827" pageHeight="1169" math="0" shadow="0"><root><mxCell id="0"/><mxCell id="1" parent="0"/><mxCell id="4" style="edgeStyle=orthogonalEdgeStyle;rounded=0;orthogonalLoop=1;jettySize=auto;html=1;entryX=0.5;entryY=0;entryDx=0;entryDy=0;fontSize=14;" edge="1" parent="1" source="2" target="3"><mxGeometry relative="1" as="geometry"/></mxCell><mxCell id="2" value="&lt;font style=&quot;font-size: 14px;&quot;&gt;guess Letter&lt;/font&gt;" style="rounded=1;whiteSpace=wrap;html=1;" vertex="1" parent="1"><mxGeometry x="280" y="180" width="120" height="60" as="geometry"/></mxCell><mxCell id="7" style="edgeStyle=orthogonalEdgeStyle;rounded=0;orthogonalLoop=1;jettySize=auto;html=1;entryX=0.567;entryY=0;entryDx=0;entryDy=0;entryPerimeter=0;fontSize=14;" edge="1" parent="1" source="3" target="5"><mxGeometry relative="1" as="geometry"/></mxCell><mxCell id="8" value="No" style="edgeLabel;html=1;align=center;verticalAlign=middle;resizable=0;points=[];fontSize=14;" vertex="1" connectable="0" parent="7"><mxGeometry x="-0.0308" relative="1" as="geometry"><mxPoint x="55" as="offset"/></mxGeometry></mxCell><mxCell id="9" style="edgeStyle=orthogonalEdgeStyle;rounded=0;orthogonalLoop=1;jettySize=auto;html=1;entryX=0.5;entryY=0;entryDx=0;entryDy=0;fontSize=14;" edge="1" parent="1" source="3" target="6"><mxGeometry relative="1" as="geometry"/></mxCell><mxCell id="10" value="Yes" style="edgeLabel;html=1;align=center;verticalAlign=middle;resizable=0;points=[];fontSize=14;" vertex="1" connectable="0" parent="9"><mxGeometry x="-0.117" y="-1" relative="1" as="geometry"><mxPoint x="-46" y="-1" as="offset"/></mxGeometry></mxCell><mxCell id="3" value="letter&lt;br&gt;&amp;nbsp;exists?" style="rhombus;whiteSpace=wrap;html=1;fontSize=14;" vertex="1" parent="1"><mxGeometry x="290" y="290" width="100" height="90" as="geometry"/></mxCell><mxCell id="13" style="edgeStyle=orthogonalEdgeStyle;rounded=0;orthogonalLoop=1;jettySize=auto;html=1;fontSize=14;entryX=0.5;entryY=0;entryDx=0;entryDy=0;" edge="1" parent="1" source="5" target="16"><mxGeometry relative="1" as="geometry"><mxPoint x="170" y="610" as="targetPoint"/><Array as="points"><mxPoint x="180" y="520"/><mxPoint x="180" y="520"/></Array></mxGeometry></mxCell><mxCell id="5" value="Increment Hangman" style="rounded=1;whiteSpace=wrap;html=1;fontSize=14;" vertex="1" parent="1"><mxGeometry x="110" y="420" width="120" height="60" as="geometry"/></mxCell><mxCell id="23" style="edgeStyle=orthogonalEdgeStyle;rounded=0;orthogonalLoop=1;jettySize=auto;html=1;entryX=0.5;entryY=0;entryDx=0;entryDy=0;fontSize=14;" edge="1" parent="1" source="6" target="22"><mxGeometry relative="1" as="geometry"/></mxCell><mxCell id="6" value="Show guessed letter" style="rounded=1;whiteSpace=wrap;html=1;fontSize=14;" vertex="1" parent="1"><mxGeometry x="440" y="420" width="120" height="60" as="geometry"/></mxCell><mxCell id="17" style="edgeStyle=orthogonalEdgeStyle;rounded=0;orthogonalLoop=1;jettySize=auto;html=1;entryX=0;entryY=0.5;entryDx=0;entryDy=0;fontSize=14;" edge="1" parent="1" source="16" target="2"><mxGeometry relative="1" as="geometry"><Array as="points"><mxPoint x="40" y="665"/><mxPoint x="40" y="210"/></Array></mxGeometry></mxCell><mxCell id="18" value="Yes" style="edgeLabel;html=1;align=center;verticalAlign=middle;resizable=0;points=[];fontSize=14;" vertex="1" connectable="0" parent="17"><mxGeometry x="-0.6203" y="2" relative="1" as="geometry"><mxPoint as="offset"/></mxGeometry></mxCell><mxCell id="20" style="edgeStyle=orthogonalEdgeStyle;rounded=0;orthogonalLoop=1;jettySize=auto;html=1;entryX=0.5;entryY=0;entryDx=0;entryDy=0;fontSize=14;" edge="1" parent="1" source="16" target="19"><mxGeometry relative="1" as="geometry"/></mxCell><mxCell id="21" value="No" style="edgeLabel;html=1;align=center;verticalAlign=middle;resizable=0;points=[];fontSize=14;" vertex="1" connectable="0" parent="20"><mxGeometry x="0.1846" y="-1" relative="1" as="geometry"><mxPoint as="offset"/></mxGeometry></mxCell><mxCell id="16" value="Guesses&lt;br&gt;Remaining?" style="rhombus;whiteSpace=wrap;html=1;fontSize=14;" vertex="1" parent="1"><mxGeometry x="130" y="610" width="100" height="110" as="geometry"/></mxCell><mxCell id="19" value="Game Over" style="rounded=1;whiteSpace=wrap;html=1;fontSize=14;" vertex="1" parent="1"><mxGeometry x="120" y="850" width="120" height="60" as="geometry"/></mxCell><mxCell id="24" style="edgeStyle=orthogonalEdgeStyle;rounded=0;orthogonalLoop=1;jettySize=auto;html=1;entryX=1;entryY=0.5;entryDx=0;entryDy=0;fontSize=14;" edge="1" parent="1" source="22" target="2"><mxGeometry relative="1" as="geometry"><Array as="points"><mxPoint x="670" y="680"/><mxPoint x="670" y="210"/></Array></mxGeometry></mxCell><mxCell id="25" value="No" style="edgeLabel;html=1;align=center;verticalAlign=middle;resizable=0;points=[];fontSize=14;" vertex="1" connectable="0" parent="24"><mxGeometry x="-0.45" y="-4" relative="1" as="geometry"><mxPoint as="offset"/></mxGeometry></mxCell><mxCell id="27" style="edgeStyle=orthogonalEdgeStyle;rounded=0;orthogonalLoop=1;jettySize=auto;html=1;entryX=0.5;entryY=0;entryDx=0;entryDy=0;fontSize=14;" edge="1" parent="1" source="22" target="26"><mxGeometry relative="1" as="geometry"/></mxCell><mxCell id="28" value="Yes" style="edgeLabel;html=1;align=center;verticalAlign=middle;resizable=0;points=[];fontSize=14;" vertex="1" connectable="0" parent="27"><mxGeometry x="-0.1833" y="-1" relative="1" as="geometry"><mxPoint as="offset"/></mxGeometry></mxCell><mxCell id="22" value="Word Revealed?" style="rhombus;whiteSpace=wrap;html=1;fontSize=14;" vertex="1" parent="1"><mxGeometry x="450" y="630" width="100" height="100" as="geometry"/></mxCell><mxCell id="26" value="You win" style="rounded=1;whiteSpace=wrap;html=1;fontSize=14;" vertex="1" parent="1"><mxGeometry x="440" y="850" width="120" height="60" as="geometry"/></mxCell><mxCell id="30" style="edgeStyle=orthogonalEdgeStyle;rounded=0;orthogonalLoop=1;jettySize=auto;html=1;entryX=0.5;entryY=0;entryDx=0;entryDy=0;fontSize=14;" edge="1" parent="1" source="29" target="2"><mxGeometry relative="1" as="geometry"/></mxCell><mxCell id="29" value="Generate Word" style="rounded=1;whiteSpace=wrap;html=1;fontSize=14;" vertex="1" parent="1"><mxGeometry x="280" y="30" width="120" height="60" as="geometry"/></mxCell></root></mxGraphModel></diagram></mxfile>